<svg width="545" height="545" viewBox="0 0 545 545" fill="none" xmlns="http://www.w3.org/2000/svg">
<g clip-path="url(#clip0_108_20)">
<path fill-rule="evenodd" clip-rule="evenodd" d="M518.059 119.72C502.845 110.247 484.583 108.085 466.666 109.487C400.823 115.358 335.294 166.06 289.863 208.076C291.083 209.169 292.32 210.257 293.56 211.347C297.362 214.69 301.189 218.055 304.632 221.672C346.491 183.542 415.583 127.193 477.311 127.992C490.567 128.164 503.848 131.718 513.403 140.684C521.449 148.234 524.854 158.181 524.557 168.676C523.554 204.291 496.36 238.324 469.567 261.64C433.112 293.365 389.645 309.224 342.002 319.816C304.024 242.91 199.802 148.848 114.197 119.524C94.5816 112.805 75.0601 109.656 54.1882 111.704C36.9381 114.6 22.2006 121.357 11.9401 135.043C0.981002 149.661 0.442099 167.397 3.86017 184.355C13.0993 230.229 51.3247 271.424 91.8058 296.983C122.243 316.203 156.273 328.72 192.086 336.054C178.931 365.194 167.74 401.724 181.061 432.592C188.286 449.332 202.265 461.293 219.976 468.265C249.137 479.746 292.682 479.824 321.988 468.766C340.181 461.902 354.399 449.984 361.943 432.965C375.462 402.473 363.917 365.83 350.812 336.995C416.573 325.215 479.796 290.935 517.683 238.889C534.852 215.305 549.739 182.75 543.611 153.656C540.613 139.428 530.848 127.683 518.059 119.72ZM66.6402 130.053C63.9603 130.063 61.2125 130.074 58.5743 130.323C46.4873 132.228 35.4875 136.675 28.3193 146.386C20.537 156.931 21.3609 169.749 24.0553 181.704C33.6515 224.294 70.4483 261.631 108.743 284.562C118.639 290.407 128.914 295.604 139.568 300.154C150.22 304.703 161.154 308.563 172.37 311.733C176.192 312.813 180.106 313.748 184.023 314.684C189.626 316.023 195.234 317.363 200.589 319.131L208.913 304.891C223.14 282.234 239.231 259.737 258.364 240.366C214.06 199.484 133.753 129.609 68.0077 130.046C67.5545 130.049 67.0983 130.051 66.6402 130.053Z" fill="white"/>
<path d="M271.488 254.894C290.076 272.557 308.097 300.623 321.098 322.321C303.71 324.614 285.658 325.76 268.114 324.813C264.768 331.098 261.713 337.467 258.718 343.904C282.961 343.88 306.577 343.399 330.635 340.392C341.795 365.506 354.674 398.274 343.186 425.244C338.139 437.088 328.336 445.634 315.848 450.541C289.512 460.882 252.69 459.789 226.386 450.031C223.777 448.953 221.276 447.69 218.882 446.243C216.489 444.796 214.233 443.183 212.115 441.403C198.399 429.839 196.08 414.74 195.347 398.542C234.766 405.401 270.488 406.354 310.453 404.46C310.481 398.245 310.027 392.001 309.729 385.792C270.275 387.059 236.944 386.235 198.107 379.967C213.951 329.075 236.242 295.806 271.488 254.894Z" fill="#EEB92D"/>
<path d="M285.097 109.055C295.183 89.9178 308.294 77.6276 329.269 69.0932C331.378 75.0198 333.326 81.0542 336.218 86.701C320.553 93.7523 312.329 102.902 303.266 116.351C312.32 122.106 320.798 131.686 324.764 141.258C325.823 143.808 326.403 145.087 325.306 147.587C319.222 152.004 313.298 156.6 307.536 161.375C307.855 152.773 305.471 145.302 299.434 138.633C298.661 137.776 297.844 136.958 296.984 136.179C296.123 135.399 295.223 134.66 294.283 133.965C293.343 133.27 292.369 132.62 291.36 132.016C290.349 131.41 289.309 130.853 288.24 130.346C287.17 129.837 286.076 129.38 284.956 128.974C283.837 128.568 282.699 128.215 281.542 127.916C280.384 127.615 279.214 127.369 278.029 127.179C276.847 126.988 275.657 126.853 274.458 126.774C273.267 126.688 272.075 126.658 270.88 126.683C269.685 126.709 268.495 126.789 267.308 126.925C266.124 127.063 264.949 127.255 263.784 127.499C262.618 127.746 261.47 128.045 260.338 128.397C259.203 128.75 258.092 129.155 257.004 129.612C255.914 130.066 254.852 130.571 253.818 131.127C252.782 131.683 251.778 132.285 250.807 132.934C249.838 133.58 248.905 134.272 248.009 135.008C239.444 142.016 236.048 150.926 235.581 161.241C229.468 156.107 223.152 151.36 216.661 146.654C221.815 133.516 228.876 125.133 240.243 116.124C230.925 102.496 223.437 94.3933 207.744 86.9924C210.16 81.1183 212.065 74.9819 214.161 69C235.775 77.4907 247.85 90.1218 258.981 109.061C268.58 107.365 275.492 107.596 285.097 109.055Z" fill="white"/>
</g>
<defs>
<clipPath id="clip0_108_20">
<rect width="545" height="545" fill="white"/>
</clipPath>
</defs>
</svg>
